<svg width="57" height="57" viewBox="0 0 57 57" fill="none" xmlns="http://www.w3.org/2000/svg">
<circle cx="28.5" cy="28.5" r="28.5" fill="#062E3F"/>
<path d="M26.4275 18.2679C26.3771 18.253 26.3241 18.2483 26.2718 18.2541C26.2195 18.2599 26.1689 18.276 26.123 18.3016C26.077 18.3273 26.0366 18.3618 26.0042 18.4032C25.9718 18.4447 25.948 18.4922 25.9342 18.5429C24.6008 23.1847 30.6326 27.8414 34.6243 30.9231C35.7126 31.7631 36.651 32.4881 37.276 33.0765C40.1843 35.8132 41.5494 37.8282 41.831 38.3732C41.8728 38.4543 41.941 38.5186 42.0244 38.5556C42.1078 38.5926 42.2012 38.6 42.2894 38.5765C42.3677 38.5549 50.1662 36.4098 48.8461 30.9531C48.8376 30.9183 48.8247 30.8847 48.8078 30.8531L39.3393 13.6779L40.5494 8.49113C40.564 8.42855 40.5633 8.36336 40.5474 8.30109C40.5316 8.23881 40.5009 8.18128 40.458 8.13337C40.4152 8.08546 40.3615 8.04858 40.3013 8.02585C40.2412 8.00312 40.1765 7.99521 40.1127 8.00279C37.2793 8.3378 34.9209 8.7278 32.6126 10.3778C24.5391 9.83948 18.0824 11.8778 13.924 16.2762C9.55561 20.8946 8.58893 27.1914 9.14061 31.5464C10.4123 40.9716 17.7924 45.9316 24.2758 47.4333C25.9308 47.815 27.5658 48 29.1475 48C34.7209 48 39.6427 45.6983 42.391 41.5832C42.446 41.5002 42.4681 41.3996 42.4529 41.3012C42.4376 41.2027 42.3862 41.1135 42.3087 41.051C42.2311 40.9885 42.133 40.9571 42.0336 40.9631C41.9342 40.969 41.8405 41.0119 41.771 41.0832C36.086 46.9617 26.7675 47.9733 19.6107 43.4899C12.1356 38.8065 9.27394 29.4731 13.094 22.2413C16.9007 15.0346 23.6675 11.9362 32.1459 13.5162C32.2392 13.5329 32.3376 13.5162 32.4209 13.4679L32.9793 13.1395C34.5226 12.2295 36.2476 11.2112 37.7677 11.0078L36.611 14.3295C36.5919 14.3847 36.585 14.4434 36.5908 14.5015C36.5966 14.5596 36.6148 14.6158 36.6443 14.6662L46.7811 31.6531C46.4594 35.0332 43.9377 35.8298 43.0711 36.0048C42.5927 34.9298 41.7144 33.7315 39.2277 31.3331C38.5243 30.6548 37.211 29.7648 35.6876 28.7331C31.7476 26.0647 25.7925 22.033 26.7025 18.7596C26.7167 18.7093 26.7209 18.6566 26.7148 18.6047C26.7087 18.5527 26.6924 18.5025 26.6668 18.4568C26.6413 18.4112 26.607 18.371 26.566 18.3386C26.5249 18.3062 26.4778 18.2822 26.4275 18.2679V18.2679Z" fill="#D7D7D7"/>
</svg>
